<?xml version="1.0" encoding="UTF-8" standalone="no"?>
<!-- Created with Inkscape (http://www.inkscape.org/) -->

<svg
   width="96mm"
   height="96mm"
   viewBox="0 0 96 96"
   version="1.1"
   id="svg1"
   xml:space="preserve"
   inkscape:version="1.4.2 (ebf0e940d0, 2025-05-08)"
   sodipodi:docname="birbles.svg"
   xmlns:inkscape="http://www.inkscape.org/namespaces/inkscape"
   xmlns:sodipodi="http://sodipodi.sourceforge.net/DTD/sodipodi-0.dtd"
   xmlns="http://www.w3.org/2000/svg"
   xmlns:svg="http://www.w3.org/2000/svg"><sodipodi:namedview
     id="namedview1"
     pagecolor="#ffffff"
     bordercolor="#000000"
     borderopacity="0.25"
     inkscape:showpageshadow="2"
     inkscape:pageopacity="0.0"
     inkscape:pagecheckerboard="0"
     inkscape:deskcolor="#d1d1d1"
     inkscape:document-units="mm"
     inkscape:zoom="1.6035354"
     inkscape:cx="161.2063"
     inkscape:cy="156.84094"
     inkscape:window-width="1918"
     inkscape:window-height="1057"
     inkscape:window-x="1920"
     inkscape:window-y="21"
     inkscape:window-maximized="1"
     inkscape:current-layer="layer2" /><defs
     id="defs1"><filter
       inkscape:collect="always"
       style="color-interpolation-filters:sRGB"
       id="filter22"
       x="-0.087145363"
       y="-0.057273421"
       width="1.1742907"
       height="1.1145468"><feGaussianBlur
         inkscape:collect="always"
         stdDeviation="0.88747587"
         id="feGaussianBlur22" /></filter><filter
       inkscape:collect="always"
       style="color-interpolation-filters:sRGB"
       id="filter23"
       x="-0.20850383"
       y="-0.17791719"
       width="1.4170077"
       height="1.3558344"><feGaussianBlur
         inkscape:collect="always"
         stdDeviation="1.2335134"
         id="feGaussianBlur23" /></filter><filter
       inkscape:collect="always"
       style="color-interpolation-filters:sRGB"
       id="filter24"
       x="-0.14847969"
       y="-0.27161079"
       width="1.2969594"
       height="1.5432216"><feGaussianBlur
         inkscape:collect="always"
         stdDeviation="1.4485856"
         id="feGaussianBlur24" /></filter><filter
       inkscape:collect="always"
       style="color-interpolation-filters:sRGB"
       id="filter25"
       x="-0.056394884"
       y="-0.089261165"
       width="1.1127898"
       height="1.1785223"><feGaussianBlur
         inkscape:collect="always"
         stdDeviation="0.91803432"
         id="feGaussianBlur25" /></filter></defs><g
     inkscape:groupmode="layer"
     id="layer2"
     inkscape:label="Layer 2"
     transform="translate(-55.725227,-59.168343)"><circle
       style="fill:#90c0b0;fill-opacity:1;stroke:none;stroke-width:0.499999;stroke-linejoin:round;stroke-dasharray:none;stroke-opacity:1"
       id="path25"
       cx="103.72523"
       cy="107.16834"
       r="48" /><g
       id="g14"
       transform="translate(338.46994,-25.609041)"><g
         id="g13"><path
           style="fill:#000000"
           d="m -231.79489,162.16404 c 0.11038,-0.5457 0.27479,-3.93775 0.36535,-7.53789 0.18244,-7.25297 -1.31832,-5.57252 -2.2315,-6.48839 -1.50921,-1.51368 11.08672,-4.89435 7.93744,-1.9494 -0.47229,0.44164 -1.25425,1.11299 -1.05811,2.89755 0.0908,0.8264 0.2124,3.07823 0.27016,5.00406 0.0578,1.92583 0.18358,3.62864 0.27961,3.78402 0.096,0.15537 0.49118,0.24656 0.87811,0.20265 1.02542,-0.11638 1.01321,0.42177 -0.0137,0.60249 -0.91464,0.16097 -0.65149,0.41357 0.5849,0.56146 0.99587,0.11912 0.53207,0.62197 -0.47924,0.5196 l -0.87611,-0.0887 0.18433,0.98257 c 0.14059,0.74943 0.10245,0.95528 -0.16075,0.86755 -0.75243,-0.25081 -0.99989,-2.01594 -1.07393,-7.66022 -0.0808,-6.163 -0.51836,-7.13538 -1.19717,-7.17849 -0.63147,-0.0401 -0.89461,-0.2591 -1.17379,-0.4085 -0.38722,-0.20723 0.58929,-0.48677 0.13721,-0.1207 -0.58302,0.47211 -1.25956,1.40559 -1.2864,7.76273 l -0.0273,6.4616 1.12448,0.24926 c 1.42568,0.31602 1.47797,0.79387 0.0662,0.60451 -1.25739,-0.16865 -1.37175,0.16119 -0.25593,0.73821 0.44132,0.22821 0.73886,0.51775 0.66119,0.64341 -0.16354,0.26461 -1.13887,0.0603 -1.35104,-0.28295 -0.27179,-0.43976 -0.9063,-0.23216 -0.9063,0.29652 0,0.29104 -0.13464,0.52917 -0.2992,0.52917 -0.20504,0 -0.23604,-0.31227 -0.0985,-0.99219 z"
           id="path1-7"
           sodipodi:nodetypes="csssssssssscssssssscssssssscc" /><path
           style="fill:#f0e0e0;fill-opacity:1;stroke:#000000;stroke-width:0.499999;stroke-linejoin:round;stroke-dasharray:none;stroke-opacity:1"
           d="m -218.07081,141.51431 c 5.8697,-5.27679 7.47217,-14.02712 8.79244,-20.84848 1.03042,-5.32383 5.85121,-8.69991 5.23311,-12.57966 -0.36072,-2.26414 -3.3528,-3.06501 -5.8957,-2.93401 -6.81324,0.35098 -10.50241,6.74489 -13.32501,12.39457 -3.11214,6.22919 -10.904,7.64315 -15.54259,10.24751 -3.2683,1.83501 -2.95669,13.14628 0.97638,16.04563 5.28351,3.89485 14.10487,2.75956 19.76137,-2.32556 z"
           id="path10"
           sodipodi:nodetypes="ssssssss" /><g
           id="g17"
           transform="translate(-270.14035,207.93677)"><path
             style="mix-blend-mode:hard-light;fill:#806050;fill-opacity:0.501961;stroke:none;stroke-width:0.499999;stroke-linejoin:round;stroke-dasharray:none;stroke-opacity:1;filter:url(#filter22)"
             d="m 63.87396,-98.988567 c -7.424998,6.97125 -7.15271,15.187371 -7.15271,15.187371 -1.929168,-6.416418 -7.757171,12.1589 -11.51125,13.593696 -3.537776,1.352126 -5.772911,8.092419 -2.167255,7.401538 3.66797,-0.702822 8.2763,-3.906481 9.611233,-5.351488 1.04513,-1.131308 2.6676,-3.672916 3.523745,-5.276276 1.210078,-2.266194 2.563178,-7.176986 2.929932,-8.655774 0.576258,-2.323529 1.139663,-6.57215 2.789663,-9.95465 1.65,-3.3825 3.145097,-5.383014 3.650544,-7.047268 0.601281,-1.979792 -1.673902,0.102851 -1.673902,0.102851 z"
             id="path16"
             sodipodi:nodetypes="ccsssssssc" /><path
             style="mix-blend-mode:hard-light;fill:#504030;fill-opacity:0.501961;stroke:none;stroke-width:0.499999;stroke-linejoin:round;stroke-dasharray:none;stroke-opacity:1;filter:url(#filter23)"
             d="m 57.111246,-80.350973 c -1.443824,1.297982 -0.911506,2.428248 -2.464708,4.07625 -1.553204,1.648 -1.239647,3.120991 -3.383507,4.907542 -2.263901,1.81374 -4.650164,5.495859 -7.846232,5.884675 -0.780248,-0.02188 -0.317867,2.604681 2.060537,1.499226 1.791767,-0.832793 3.848482,-1.292378 6.56526,-3.582987 2.716779,-2.290606 5.976771,-9.76943 5.06865,-12.784706 z"
             id="path17"
             sodipodi:nodetypes="csssssc" /></g><path
           style="fill:#f0e0e0;fill-opacity:1;stroke:#000000;stroke-width:0.5;stroke-linejoin:round;stroke-dasharray:none;stroke-opacity:1"
           d="m -225.56446,128.21794 c 4.04759,4.54286 3.27649,11.11852 -4.24571,17.72129 -3.63896,3.19417 -9.8408,4.25552 -19.09868,6.36261 -12.53317,2.85254 -21.20344,10.80467 -21.93991,8.31208 -0.65041,-2.20134 13.50598,-14.49891 23.35997,-25.51817 3.22277,-3.60388 7.1229,-7.12139 10.61181,-8.54574 l 7.28337,-2.97344"
           id="path9"
           sodipodi:nodetypes="csssssc" /><g
           id="g18"
           transform="translate(-268.85276,207.27513)"
           style="display:inline"><path
             style="mix-blend-mode:hard-light;fill:#806050;fill-opacity:0.501961;stroke:none;stroke-width:0.499999;stroke-linejoin:round;stroke-dasharray:none;stroke-opacity:1;filter:url(#filter25)"
             d="m 5.4544449,-52.415175 c 10.3546951,-6.883683 18.4419111,-9.567462 23.9872141,-12.927714 5.56224,-3.370515 8.539191,-4.560315 9.495878,-9.55257 l 1.858713,2.047959 c 1.753125,-2.51625 1.588125,-4.145625 1.588125,-4.145625 2.51625,2.413125 2.701875,5.754375 1.134375,9.054375 -1.5675,3.3 -7.05375,7.3425 -10.02375,7.92 -2.97,0.5775 -11.17875,2.26875 -15.84,4.62 -4.66125,2.35125 -9.4273602,3.4509 -12.2005551,2.983575 z"
             id="path14"
             sodipodi:nodetypes="cscccsssc" /><path
             id="path15"
             style="mix-blend-mode:hard-light;fill:#504030;fill-opacity:0.501961;stroke:none;stroke-width:0.499999;stroke-linejoin:round;stroke-dasharray:none;stroke-opacity:1;filter:url(#filter24)"
             d="m 43.081608,-70.003479 c 0,0 -3.587796,2.625066 -5.046204,4.21473 -1.458409,1.589664 -4.30233,2.172842 -7.685835,3.966683 -3.383505,1.79384 -5.906535,1.458723 -8.940023,2.785876 -3.033488,1.327149 -1.954598,2.464311 2.061373,1.431954 3.945871,-1.192707 8.092849,-2.038783 10.024194,-2.414323 1.725195,-0.335454 4.2991,-1.840094 6.461104,-3.68918 0.04533,-0.03877 0.09044,-0.07772 0.135393,-0.116789 0.60327,-0.538815 3.015522,-2.899303 2.989998,-6.178951 z" /></g><path
           style="fill:#f08040;fill-opacity:1;stroke:#000000;stroke-width:0.499999;stroke-linejoin:round;stroke-dasharray:none;stroke-opacity:1"
           d="m -198.61421,109.02031 c -0.6239,-2.93387 -5.05778,-3.01231 -5.87142,-3.01231 -0.58347,0 -2.66417,0.25778 -2.67609,2.21203 -0.009,1.42826 1.39615,1.67852 3.80015,1.14985 2.67855,-0.58905 4.74736,-0.34957 4.74736,-0.34957 z"
           id="path11"
           sodipodi:nodetypes="csssc" /><circle
           style="fill:#ffffff;fill-opacity:1;stroke:#000000;stroke-width:0.499999;stroke-linejoin:round;stroke-dasharray:none;stroke-opacity:1"
           id="path12"
           cx="-212.02287"
           cy="110.55024"
           r="2.0928152" /><circle
           style="fill:none;fill-opacity:1;stroke:#000000;stroke-width:0.499999;stroke-linejoin:round;stroke-dasharray:none;stroke-opacity:1"
           id="path12-6"
           cx="-220.87367"
           cy="101.03725"
           r="0.86936951" /><circle
           style="fill:#ffffff;fill-opacity:1;stroke:#000000;stroke-width:0.499999;stroke-linejoin:round;stroke-dasharray:none;stroke-opacity:1"
           id="path12-0"
           r="0.25441986"
           cy="110.55024"
           cx="-212.02287" /><path
           style="fill:none;fill-opacity:1;stroke:#000000;stroke-width:0.499999;stroke-linejoin:round;stroke-dasharray:none;stroke-opacity:1"
           d="m -226.75343,93.251859 c -0.56858,-4.65091 2.5968,-5.23966 3.53684,-5.20146 1.58742,0.06451 2.30594,1.540123 2.22407,3.124639 -0.10187,1.971523 -1.74412,3.005321 -2.44283,4.462727 -0.94505,1.971235 -0.4257,2.430497 0.81343,3.622093"
           id="path13"
           sodipodi:nodetypes="csssc" /></g></g></g></svg>
