<?xml version="1.0" encoding="UTF-8" standalone="no"?>
<svg
   width="230mm"
   height="250mm"
   viewBox="0 0 229.99999 250"
   version="1.1"
   id="svg8"
   inkscape:version="1.4.2 (ebf0e940d0, 2025-05-08)"
   sodipodi:docname="Thornwood.svg"
   inkscape:export-filename="C:\Users\terra\Documents\bitmap.png"
   inkscape:export-xdpi="150"
   inkscape:export-ydpi="150"
   xmlns:inkscape="http://www.inkscape.org/namespaces/inkscape"
   xmlns:sodipodi="http://sodipodi.sourceforge.net/DTD/sodipodi-0.dtd"
   xmlns="http://www.w3.org/2000/svg"
   xmlns:svg="http://www.w3.org/2000/svg"
   xmlns:rdf="http://www.w3.org/1999/02/22-rdf-syntax-ns#"
   xmlns:cc="http://creativecommons.org/ns#"
   xmlns:dc="http://purl.org/dc/elements/1.1/">
  <defs
     id="defs2">
    <inkscape:path-effect
       effect="envelope"
       id="path-effect907"
       is_visible="true"
       lpeversion="1"
       yy="true"
       xx="false"
       bendpath1="M 147.00498,189.68041 C 17.761312,151.09862 -10.494967,134.18717 -10.494967,107.86525 c 0,-66.01066 73.375807,-132.1121 157.499947,-81.815161"
       bendpath2="M -57.398578,64.643829 V 84.643825"
       bendpath3="M 147.00498,189.68041 C 107.81207,162.4777 21.108757,135.88703 19.505269,107.86525 17.991508,81.411517 99.031092,53.582158 147.00498,26.050089"
       bendpath4="M -332.39858,64.643829 V 84.643825"
       bendpath1-nodetypes="csc"
       bendpath3-nodetypes="csc" />
  </defs>
  <sodipodi:namedview
     id="base"
     pagecolor="#ffffff"
     bordercolor="#666666"
     borderopacity="1.0"
     inkscape:pageopacity="0.0"
     inkscape:pageshadow="2"
     inkscape:zoom="1.0102171"
     inkscape:cx="337.05626"
     inkscape:cy="349.92478"
     inkscape:document-units="mm"
     inkscape:current-layer="layer1"
     inkscape:document-rotation="0"
     showgrid="false"
     inkscape:snap-smooth-nodes="false"
     inkscape:object-nodes="true"
     inkscape:snap-intersection-paths="false"
     inkscape:object-paths="false"
     inkscape:snap-center="true"
     inkscape:snap-midpoints="false"
     fit-margin-top="5"
     fit-margin-left="5"
     fit-margin-bottom="5"
     fit-margin-right="5"
     inkscape:window-width="1918"
     inkscape:window-height="1057"
     inkscape:window-x="1920"
     inkscape:window-y="21"
     inkscape:window-maximized="1"
     inkscape:snap-global="true"
     inkscape:showpageshadow="2"
     inkscape:pagecheckerboard="0"
     inkscape:deskcolor="#d1d1d1" />
  <metadata
     id="metadata5">
    <rdf:RDF>
      <cc:Work
         rdf:about="">
        <dc:format>image/svg+xml</dc:format>
        <dc:type
           rdf:resource="http://purl.org/dc/dcmitype/StillImage" />
      </cc:Work>
    </rdf:RDF>
  </metadata>
  <g
     inkscape:label="Layer 1"
     inkscape:groupmode="layer"
     id="layer1"
     transform="translate(209.44879,1264.2333)">
    <g
       id="g4">
      <path
         id="path2933-0-5-1-6-6"
         style="opacity:0.997;fill:#b40064;fill-opacity:1;stroke:none;stroke-width:0.264999;stroke-linecap:round;stroke-linejoin:round;stroke-miterlimit:4;stroke-dasharray:none;stroke-opacity:1;stop-color:#000000"
         d="m -47.19634,-1244.4332 a 5.0000001,5.0000001 0 0 0 -5.00022,-4.9805 5.0000001,5.0000001 0 0 0 -4.9997,5.0002 5.0000001,5.0000001 0 0 0 0.004,0.2129 5.0000001,5.0000001 0 0 0 0,0.01 c 0.0486,3.6084 1.25418,5.4753 1.25418,10.9833 l 0.97205,43.3141 c 0,25.6805 1.23222,40.2355 0.43304,49.0058 0.74811,-0.425 2.43243,-3.9732 2.43243,-7.3638 l 0.99218,-84.43 c 0,-6.3693 1.70953,-4.8529 3.53465,-9.8258 a 5.0000001,5.0000001 0 0 0 0.37674,-1.9032 5.0000001,5.0000001 0 0 0 0,-0.02 z" />
      <path
         id="path4482-4-4-0"
         style="fill:#b40064;fill-opacity:1;stroke:none;stroke-width:0.264583px;stroke-linecap:butt;stroke-linejoin:miter;stroke-opacity:1"
         d="m -66.33076,-1223.2632 0.0109,0.017 a 3.2083658,3.2083658 0 0 0 -3.13727,3.2075 3.2083658,3.2083658 0 0 0 3.20807,3.2081 3.2083658,3.2083658 0 0 0 2.89335,-1.8216 l 0.002,0 c 0.46496,-0.703 1.71964,-0.8992 3.31608,-1.2108 0.95486,-0.1863 8.80181,-1.2445 14.99235,-1.4407 4.19195,-0.1329 6.85342,0.019 8.0109,-0.05 -0.90284,-0.4398 -5.51736,-0.8308 -8.0331,-0.9451 -7.08755,-0.3222 -21.26279,-0.9664 -21.26279,-0.9664 z" />
      <path
         id="path4482-9-0-2-6"
         style="fill:#b40064;fill-opacity:1;stroke:none;stroke-width:0.264583px;stroke-linecap:butt;stroke-linejoin:miter;stroke-opacity:1"
         d="m -41.49682,-1191.4094 -0.0109,0.017 a 3.2083658,3.2083658 0 0 1 3.13727,3.2075 3.2083658,3.2083658 0 0 1 -3.20807,3.2081 3.2083658,3.2083658 0 0 1 -2.89335,-1.8216 l -0.002,0 c -0.46495,-0.7031 -1.71963,-0.8992 -3.31607,-1.2108 -0.95486,-0.1864 -8.80181,-1.2445 -14.99235,-1.4407 -4.19195,-0.1329 -6.85342,0.019 -8.0109,-0.05 0.90284,-0.4399 5.51736,-0.8308 8.0331,-0.9452 7.08755,-0.3222 21.26279,-0.9663 21.26279,-0.9663 z" />
      <path
         id="path4482-1-3-5-2"
         style="fill:#b40064;fill-opacity:1;stroke:none;stroke-width:0.264583px;stroke-linecap:butt;stroke-linejoin:miter;stroke-opacity:1"
         d="m -66.33076,-1159.5556 0.0109,0.017 a 3.2083658,3.2083658 0 0 0 -3.13726,3.2075 3.2083658,3.2083658 0 0 0 3.20807,3.2081 3.2083658,3.2083658 0 0 0 2.89335,-1.8216 l 0.002,0 c 0.46495,-0.7031 1.71963,-0.8992 3.31607,-1.2108 0.95486,-0.1864 8.80181,-1.2445 14.99234,-1.4407 4.19196,-0.1329 6.85343,0.019 8.0109,-0.05 -0.90283,-0.4399 -5.51736,-0.8308 -8.0331,-0.9452 -7.08754,-0.3221 -21.26279,-0.9663 -21.26279,-0.9663 z" />
      <path
         id="path4482-16-2-5-6"
         style="fill:#b40064;fill-opacity:1;stroke:none;stroke-width:0.264583px;stroke-linecap:butt;stroke-linejoin:miter;stroke-opacity:1"
         d="m -66.19848,-1239.2151 -0.005,0.02 c -1.22184,-1.2448 -3.21427,-1.2854 -4.4858,-0.091 -1.29145,1.2129 -1.35531,3.243 -0.14265,4.5346 0.84506,0.9001 2.12106,1.1898 3.13539,0.9792 2.12762,-0.4418 13.1188,11.5989 14.28866,12.729 1.03611,1.0009 7.1942,6.9395 11.57482,11.3181 2.96636,2.9649 4.67727,5.0092 5.52018,5.8055 -0.29737,-0.9592 -3.17113,-4.5908 -4.80985,-6.503 -4.61674,-5.3873 -25.07541,-28.7912 -25.07541,-28.7912 z"
         inkscape:transform-center-x="-9.2931151"
         inkscape:transform-center-y="9.0607043"
         sodipodi:nodetypes="cccsssscscc" />
    </g>
    <g
       id="g3">
      <path
         id="path2933-0-5-3-1"
         style="opacity:0.997;fill:#b40064;fill-opacity:1;stroke:none;stroke-width:0.264999;stroke-linecap:round;stroke-linejoin:round;stroke-miterlimit:4;stroke-dasharray:none;stroke-opacity:1;stop-color:#000000"
         d="m -67.19634,-1244.4332 a 5.0000001,5.0000001 0 0 0 -5.00022,-4.9805 5.0000001,5.0000001 0 0 0 -4.9997,5.0002 5.0000001,5.0000001 0 0 0 0.004,0.2129 5.0000001,5.0000001 0 0 0 0,0.01 c 0.0486,3.6084 1.25418,5.4753 1.25418,10.9833 l 0.97205,43.3141 c 0,25.6805 1.23222,40.2355 0.43304,49.0058 0.74811,-0.425 2.43243,-3.9732 2.43243,-7.3638 l 0.99218,-84.43 c 0,-6.3693 1.70953,-4.8529 3.53465,-9.8258 a 5.0000001,5.0000001 0 0 0 0.37674,-1.9032 5.0000001,5.0000001 0 0 0 0,-0.02 z" />
      <path
         id="path4482-0-2"
         style="fill:#b40064;fill-opacity:1;stroke:none;stroke-width:0.264583px;stroke-linecap:butt;stroke-linejoin:miter;stroke-opacity:1"
         d="m -86.33076,-1223.2632 0.0109,0.017 a 3.2083658,3.2083658 0 0 0 -3.13727,3.2075 3.2083658,3.2083658 0 0 0 3.20807,3.2081 3.2083658,3.2083658 0 0 0 2.89335,-1.8216 l 0.002,0 c 0.46496,-0.703 1.71964,-0.8992 3.31608,-1.2108 0.95486,-0.1863 8.80181,-1.2445 14.99235,-1.4407 4.19195,-0.1329 6.85342,0.019 8.0109,-0.05 -0.90284,-0.4398 -5.51736,-0.8308 -8.0331,-0.9451 -7.08755,-0.3222 -21.26279,-0.9664 -21.26279,-0.9664 z" />
      <path
         id="path4482-1-0-7"
         style="fill:#b40064;fill-opacity:1;stroke:none;stroke-width:0.264583px;stroke-linecap:butt;stroke-linejoin:miter;stroke-opacity:1"
         d="m -86.33076,-1159.5556 0.0109,0.017 a 3.2083658,3.2083658 0 0 0 -3.13726,3.2075 3.2083658,3.2083658 0 0 0 3.20807,3.2081 3.2083658,3.2083658 0 0 0 2.89335,-1.8216 l 0.002,0 c 0.46495,-0.7031 1.71963,-0.8992 3.31607,-1.2108 0.95486,-0.1864 8.80181,-1.2445 14.99234,-1.4407 4.19196,-0.1329 6.85343,0.019 8.0109,-0.05 -0.90283,-0.4399 -5.51736,-0.8308 -8.0331,-0.9452 -7.08754,-0.3221 -21.26279,-0.9663 -21.26279,-0.9663 z" />
      <path
         id="path4482-16-4-8-4-0"
         style="fill:#b40064;fill-opacity:1;stroke:none;stroke-width:0.264583px;stroke-linecap:butt;stroke-linejoin:miter;stroke-opacity:1"
         d="m -86.19349,-1239.2348 -0.005,0.02 c -1.22184,-1.2448 -3.21427,-1.2854 -4.4858,-0.091 -1.29145,1.2129 -1.35531,3.243 -0.14265,4.5346 0.84506,0.9001 2.12106,1.1898 3.13539,0.9792 2.12762,-0.4418 17.30474,14.8982 20.31695,17.9251 7.17277,7.2079 7.97533,8.9092 7.32714,12.173 -0.30891,1.5554 -4.43844,5.0039 -6.6912,6.8848 -5.36745,4.4813 -23.46106,11.2924 -23.46106,21.2646 0,9.7801 11.55792,16.339 19.40052,21.1844 4.77067,2.9474 7.82124,7.0884 8.11443,7.3654 -0.0491,-0.1585 -0.62535,-3.6917 -4.78382,-6.981 -8.17989,-6.4703 -18.37657,-12.6998 -18.37657,-21.5393 0,-3.8112 6.50701,-8.0466 10.77663,-10.9321 9.32453,-6.3018 16.62307,-12.3095 17.46826,-13.1364 2.1353,-2.089 2.81447,-8.0225 -0.57327,-11.9136 -7.55795,-8.6809 -28.01961,-27.7365 -28.01961,-27.7365 z"
         inkscape:transform-center-x="-9.2931151"
         inkscape:transform-center-y="9.0607043"
         sodipodi:nodetypes="cccssssssscssssscc" />
    </g>
    <g
       id="g2">
      <path
         id="path2933-0-5-1-6-3-4-7"
         style="opacity:0.997;fill:#b40064;fill-opacity:1;stroke:none;stroke-width:0.264999;stroke-linecap:round;stroke-linejoin:round;stroke-miterlimit:4;stroke-dasharray:none;stroke-opacity:1;stop-color:#000000"
         d="m -117.19634,-1244.4332 a 5.0000001,5.0000001 0 0 0 -5.00022,-4.9805 5.0000001,5.0000001 0 0 0 -4.9997,5.0002 5.0000001,5.0000001 0 0 0 0.004,0.2129 5.0000001,5.0000001 0 0 0 0,0.01 c 0.0486,3.6084 1.25418,5.4753 1.25418,10.9833 l 0.97205,43.3141 c 0,25.6805 1.23222,40.2355 0.43304,49.0058 0.74811,-0.425 2.43243,-3.9732 2.43243,-7.3638 l 0.99218,-84.43 c 0,-6.3693 1.70953,-4.8529 3.53465,-9.8258 a 5.0000001,5.0000001 0 0 0 0.37674,-1.9032 5.0000001,5.0000001 0 0 0 0,-0.02 z" />
      <path
         id="path4482-16-2-5-7-4-5"
         style="fill:#b40064;fill-opacity:1;stroke:none;stroke-width:0.264583px;stroke-linecap:butt;stroke-linejoin:miter;stroke-opacity:1"
         d="m -136.19848,-1239.2151 -0.005,0.02 c -1.22184,-1.2448 -3.21427,-1.2854 -4.4858,-0.091 -1.29145,1.2129 -1.35531,3.243 -0.14265,4.5346 0.84506,0.9001 2.12106,1.1898 3.13539,0.9792 2.12762,-0.4418 13.1188,11.5989 14.28866,12.729 1.03611,1.0009 7.1942,6.9395 11.57482,11.3181 2.96636,2.9649 4.67727,5.0092 5.52018,5.8055 -0.29737,-0.9592 -3.17113,-4.5908 -4.80985,-6.503 -4.61674,-5.3873 -25.07541,-28.7912 -25.07541,-28.7912 z"
         inkscape:transform-center-x="-9.2931151"
         inkscape:transform-center-y="9.0607043"
         sodipodi:nodetypes="cccsssscscc" />
    </g>
    <g
       id="g6">
      <path
         id="path2933-0-5-1-6-75"
         style="opacity:0.997;fill:#b40064;fill-opacity:1;stroke:none;stroke-width:0.264999;stroke-linecap:round;stroke-linejoin:round;stroke-miterlimit:4;stroke-dasharray:none;stroke-opacity:1;stop-color:#000000"
         d="m -147.19634,-1132.5987 a 5.0000001,5.0000001 0 0 0 -5.00022,-4.9805 5.0000001,5.0000001 0 0 0 -4.9997,5.0002 5.0000001,5.0000001 0 0 0 0.004,0.2129 5.0000001,5.0000001 0 0 0 0,0.01 c 0.0486,3.6084 1.25418,5.4753 1.25418,10.9833 l 0.97205,43.3141 c 0,25.6805 1.23222,40.2355 0.43304,49.0058 0.74811,-0.425 2.43243,-3.9732 2.43243,-7.3638 l 0.99218,-84.43 c 0,-6.3693 1.70953,-4.8529 3.53465,-9.8258 a 5.0000001,5.0000001 0 0 0 0.37674,-1.9032 5.0000001,5.0000001 0 0 0 0,-0.02 z" />
      <path
         id="path4482-4-4-9"
         style="fill:#b40064;fill-opacity:1;stroke:none;stroke-width:0.264583px;stroke-linecap:butt;stroke-linejoin:miter;stroke-opacity:1"
         d="m -166.33076,-1111.4288 0.0109,0.017 a 3.2083658,3.2083658 0 0 0 -3.13727,3.2076 3.2083658,3.2083658 0 0 0 3.20807,3.2081 3.2083658,3.2083658 0 0 0 2.89335,-1.8216 l 0.002,0 c 0.46496,-0.7031 1.71964,-0.8992 3.31608,-1.2108 0.95486,-0.1864 8.80181,-1.2445 14.99235,-1.4407 4.19195,-0.1329 6.85342,0.019 8.0109,-0.05 -0.90284,-0.4399 -5.51736,-0.8308 -8.0331,-0.9452 -7.08755,-0.3222 -21.26279,-0.9664 -21.26279,-0.9664 z" />
      <path
         id="path4482-9-0-2-2"
         style="fill:#b40064;fill-opacity:1;stroke:none;stroke-width:0.264583px;stroke-linecap:butt;stroke-linejoin:miter;stroke-opacity:1"
         d="m -141.49682,-1079.575 -0.0109,0.017 a 3.2083658,3.2083658 0 0 1 3.13727,3.2076 3.2083658,3.2083658 0 0 1 -3.20807,3.208 3.2083658,3.2083658 0 0 1 -2.89335,-1.8215 l -0.002,0 c -0.46495,-0.7031 -1.71963,-0.8993 -3.31607,-1.2108 -0.95486,-0.1864 -8.80181,-1.2446 -14.99235,-1.4408 -4.19195,-0.1328 -6.85342,0.019 -8.0109,-0.05 0.90284,-0.4398 5.51736,-0.8308 8.0331,-0.9451 7.08755,-0.3222 21.26279,-0.9664 21.26279,-0.9664 z" />
      <path
         id="path4482-1-3-5-28"
         style="fill:#b40064;fill-opacity:1;stroke:none;stroke-width:0.264583px;stroke-linecap:butt;stroke-linejoin:miter;stroke-opacity:1"
         d="m -166.33076,-1047.7212 0.0109,0.017 a 3.2083658,3.2083658 0 0 0 -3.13726,3.2076 3.2083658,3.2083658 0 0 0 3.20807,3.208 3.2083658,3.2083658 0 0 0 2.89335,-1.8215 l 0.002,0 c 0.46495,-0.7031 1.71963,-0.8992 3.31607,-1.2108 0.95486,-0.1864 8.80181,-1.2445 14.99234,-1.4408 4.19196,-0.1328 6.85343,0.019 8.0109,-0.05 -0.90283,-0.4398 -5.51736,-0.8307 -8.0331,-0.9451 -7.08754,-0.3222 -21.26279,-0.9664 -21.26279,-0.9664 z" />
      <path
         id="path4482-16-2-5-9"
         style="fill:#b40064;fill-opacity:1;stroke:none;stroke-width:0.264583px;stroke-linecap:butt;stroke-linejoin:miter;stroke-opacity:1"
         d="m -166.19848,-1127.3807 -0.005,0.02 c -1.22184,-1.2447 -3.21427,-1.2853 -4.4858,-0.091 -1.29145,1.2129 -1.35531,3.243 -0.14265,4.5347 0.84506,0.9 2.12106,1.1898 3.13539,0.9792 2.12762,-0.4418 13.1188,11.5988 14.28866,12.729 1.03611,1.0008 7.1942,6.9395 11.57482,11.318 2.96636,2.9649 4.67727,5.0093 5.52018,5.8056 -0.29737,-0.9593 -3.17113,-4.5908 -4.80985,-6.503 -4.61674,-5.3873 -25.07541,-28.7912 -25.07541,-28.7912 z"
         inkscape:transform-center-x="-9.2931151"
         inkscape:transform-center-y="9.0607043"
         sodipodi:nodetypes="cccsssscscc" />
    </g>
    <g
       id="g7">
      <path
         id="path2933-0-5-1-6-1-6"
         style="opacity:0.997;fill:#b40064;fill-opacity:1;stroke:none;stroke-width:0.264999;stroke-linecap:round;stroke-linejoin:round;stroke-miterlimit:4;stroke-dasharray:none;stroke-opacity:1;stop-color:#000000"
         d="m -117.19634,-1132.5987 a 5.0000001,5.0000001 0 0 0 -5.00022,-4.9805 5.0000001,5.0000001 0 0 0 -4.9997,5.0002 5.0000001,5.0000001 0 0 0 0.004,0.2129 5.0000001,5.0000001 0 0 0 0,0.01 c 0.0486,3.6084 1.25418,5.4753 1.25418,10.9833 l 0.97205,43.3141 c 0,25.6805 1.23222,40.2355 0.43304,49.0058 0.74811,-0.425 2.43243,-3.9732 2.43243,-7.3638 l 0.99218,-84.43 c 0,-6.3693 1.70953,-4.8529 3.53465,-9.8258 a 5.0000001,5.0000001 0 0 0 0.37674,-1.9032 5.0000001,5.0000001 0 0 0 0,-0.02 z" />
      <path
         id="path4482-4-4-4-1"
         style="fill:#b40064;fill-opacity:1;stroke:none;stroke-width:0.264583px;stroke-linecap:butt;stroke-linejoin:miter;stroke-opacity:1"
         d="m -136.33076,-1111.4288 0.0109,0.017 a 3.2083658,3.2083658 0 0 0 -3.13727,3.2076 3.2083658,3.2083658 0 0 0 3.20807,3.2081 3.2083658,3.2083658 0 0 0 2.89335,-1.8216 l 0.002,0 c 0.46496,-0.7031 1.71964,-0.8992 3.31608,-1.2108 0.95486,-0.1864 8.80181,-1.2445 14.99235,-1.4407 4.19195,-0.1329 6.85342,0.019 8.0109,-0.05 -0.90284,-0.4399 -5.51736,-0.8308 -8.0331,-0.9452 -7.08755,-0.3222 -21.26279,-0.9664 -21.26279,-0.9664 z" />
      <path
         id="path4482-9-0-2-4-29"
         style="fill:#b40064;fill-opacity:1;stroke:none;stroke-width:0.264583px;stroke-linecap:butt;stroke-linejoin:miter;stroke-opacity:1"
         d="m -111.49682,-1079.575 -0.0109,0.017 a 3.2083658,3.2083658 0 0 1 3.13727,3.2076 3.2083658,3.2083658 0 0 1 -3.20807,3.208 3.2083658,3.2083658 0 0 1 -2.89335,-1.8215 l -0.002,0 c -0.46495,-0.7031 -1.71963,-0.8993 -3.31607,-1.2108 -0.95486,-0.1864 -8.80181,-1.2446 -14.99235,-1.4408 -4.19195,-0.1328 -6.85342,0.019 -8.0109,-0.05 0.90284,-0.4398 5.51736,-0.8308 8.0331,-0.9451 7.08755,-0.3222 21.26279,-0.9664 21.26279,-0.9664 z" />
      <path
         id="path4482-1-3-5-8-3"
         style="fill:#b40064;fill-opacity:1;stroke:none;stroke-width:0.264583px;stroke-linecap:butt;stroke-linejoin:miter;stroke-opacity:1"
         d="m -136.33076,-1047.7212 0.0109,0.017 a 3.2083658,3.2083658 0 0 0 -3.13726,3.2076 3.2083658,3.2083658 0 0 0 3.20807,3.208 3.2083658,3.2083658 0 0 0 2.89335,-1.8215 l 0.002,0 c 0.46495,-0.7031 1.71963,-0.8992 3.31607,-1.2108 0.95486,-0.1864 8.80181,-1.2445 14.99234,-1.4408 4.19196,-0.1328 6.85343,0.019 8.0109,-0.05 -0.90283,-0.4398 -5.51736,-0.8307 -8.0331,-0.9451 -7.08754,-0.3222 -21.26279,-0.9664 -21.26279,-0.9664 z" />
    </g>
    <g
       id="g8">
      <path
         id="path2933-0-5-1-6-7-4"
         style="opacity:0.997;fill:#b40064;fill-opacity:1;stroke:none;stroke-width:0.264999;stroke-linecap:round;stroke-linejoin:round;stroke-miterlimit:4;stroke-dasharray:none;stroke-opacity:1;stop-color:#000000"
         d="m -97.19634,-1132.5987 a 5.0000001,5.0000001 0 0 0 -5.00022,-4.9805 5.0000001,5.0000001 0 0 0 -4.9997,5.0002 5.0000001,5.0000001 0 0 0 0.004,0.2129 5.0000001,5.0000001 0 0 0 0,0.01 c 0.0486,3.6084 1.25418,5.4753 1.25418,10.9833 l 0.97205,43.3141 c 0,25.6805 1.23222,40.2355 0.43304,49.0058 0.74811,-0.425 2.43243,-3.9732 2.43243,-7.3638 l 0.99218,-84.43 c 0,-6.3693 1.70953,-4.8529 3.53465,-9.8258 a 5.0000001,5.0000001 0 0 0 0.37674,-1.9032 5.0000001,5.0000001 0 0 0 0,-0.02 z" />
      <path
         id="path4482-4-4-8-7"
         style="fill:#b40064;fill-opacity:1;stroke:none;stroke-width:0.264583px;stroke-linecap:butt;stroke-linejoin:miter;stroke-opacity:1"
         d="m -116.33076,-1111.4288 0.0109,0.017 a 3.2083658,3.2083658 0 0 0 -3.13727,3.2076 3.2083658,3.2083658 0 0 0 3.20807,3.2081 3.2083658,3.2083658 0 0 0 2.89335,-1.8216 l 0.002,0 c 0.46496,-0.7031 1.71964,-0.8992 3.31608,-1.2108 0.95486,-0.1864 8.80181,-1.2445 14.99235,-1.4407 4.19195,-0.1329 6.85342,0.019 8.0109,-0.05 -0.90284,-0.4399 -5.51736,-0.8308 -8.0331,-0.9452 -7.08755,-0.3222 -21.26279,-0.9664 -21.26279,-0.9664 z" />
      <path
         id="path4482-1-3-5-6-8"
         style="fill:#b40064;fill-opacity:1;stroke:none;stroke-width:0.264583px;stroke-linecap:butt;stroke-linejoin:miter;stroke-opacity:1"
         d="m -116.33076,-1047.7212 0.0109,0.017 a 3.2083658,3.2083658 0 0 0 -3.13726,3.2076 3.2083658,3.2083658 0 0 0 3.20807,3.208 3.2083658,3.2083658 0 0 0 2.89335,-1.8215 l 0.002,0 c 0.46495,-0.7031 1.71963,-0.8992 3.31607,-1.2108 0.95486,-0.1864 8.80181,-1.2445 14.99234,-1.4408 4.19196,-0.1328 6.85343,0.019 8.0109,-0.05 -0.90283,-0.4398 -5.51736,-0.8307 -8.0331,-0.9451 -7.08754,-0.3222 -21.26279,-0.9664 -21.26279,-0.9664 z" />
      <path
         id="path4482-16-2-5-8-4"
         style="fill:#b40064;fill-opacity:1;stroke:none;stroke-width:0.264583px;stroke-linecap:butt;stroke-linejoin:miter;stroke-opacity:1"
         d="m -116.19848,-1127.3807 -0.005,0.02 c -1.22184,-1.2447 -3.21427,-1.2853 -4.4858,-0.091 -1.29145,1.2129 -1.35531,3.243 -0.14265,4.5347 0.84506,0.9 2.12106,1.1898 3.13539,0.9792 2.12762,-0.4418 13.1188,11.5988 14.28866,12.729 1.03611,1.0008 7.1942,6.9395 11.57482,11.318 2.96636,2.9649 4.67727,5.0093 5.52018,5.8056 -0.29737,-0.9593 -3.17113,-4.5908 -4.80985,-6.503 -4.61674,-5.3873 -25.07541,-28.7912 -25.07541,-28.7912 z"
         inkscape:transform-center-x="-9.2931151"
         inkscape:transform-center-y="9.0607043"
         sodipodi:nodetypes="cccsssscscc" />
    </g>
    <g
       id="g10">
      <path
         id="path2933-0-5-1-6-1-1-6"
         style="opacity:0.997;fill:#b40064;fill-opacity:1;stroke:none;stroke-width:0.264999;stroke-linecap:round;stroke-linejoin:round;stroke-miterlimit:4;stroke-dasharray:none;stroke-opacity:1;stop-color:#000000"
         d="m -47.19634,-1132.5987 a 5.0000001,5.0000001 0 0 0 -5.00022,-4.9805 5.0000001,5.0000001 0 0 0 -4.9997,5.0002 5.0000001,5.0000001 0 0 0 0.004,0.2129 5.0000001,5.0000001 0 0 0 0,0.01 c 0.0486,3.6084 1.25418,5.4753 1.25418,10.9833 l 0.97205,43.3141 c 0,25.6805 1.23222,40.2355 0.43304,49.0058 0.74811,-0.425 2.43243,-3.9732 2.43243,-7.3638 l 0.99218,-84.43 c 0,-6.3693 1.70953,-4.8529 3.53465,-9.8258 a 5.0000001,5.0000001 0 0 0 0.37674,-1.9032 5.0000001,5.0000001 0 0 0 0,-0.02 z" />
      <path
         id="path4482-4-4-4-6-3"
         style="fill:#b40064;fill-opacity:1;stroke:none;stroke-width:0.264583px;stroke-linecap:butt;stroke-linejoin:miter;stroke-opacity:1"
         d="m -66.33076,-1111.4288 0.0109,0.017 a 3.2083658,3.2083658 0 0 0 -3.13727,3.2076 3.2083658,3.2083658 0 0 0 3.20807,3.2081 3.2083658,3.2083658 0 0 0 2.89335,-1.8216 l 0.002,0 c 0.46496,-0.7031 1.71964,-0.8992 3.31608,-1.2108 0.95486,-0.1864 8.80181,-1.2445 14.99235,-1.4407 4.19195,-0.1329 6.85342,0.019 8.0109,-0.05 -0.90284,-0.4399 -5.51736,-0.8308 -8.0331,-0.9452 -7.08755,-0.3222 -21.26279,-0.9664 -21.26279,-0.9664 z" />
      <path
         id="path4482-1-3-5-8-6-2"
         style="fill:#b40064;fill-opacity:1;stroke:none;stroke-width:0.264583px;stroke-linecap:butt;stroke-linejoin:miter;stroke-opacity:1"
         d="m -66.33076,-1047.7212 0.0109,0.017 a 3.2083658,3.2083658 0 0 0 -3.13726,3.2076 3.2083658,3.2083658 0 0 0 3.20807,3.208 3.2083658,3.2083658 0 0 0 2.89335,-1.8215 l 0.002,0 c 0.46495,-0.7031 1.71963,-0.8992 3.31607,-1.2108 0.95486,-0.1864 8.80181,-1.2445 14.99234,-1.4408 4.19196,-0.1328 6.85343,0.019 8.0109,-0.05 -0.90283,-0.4398 -5.51736,-0.8307 -8.0331,-0.9451 -7.08754,-0.3222 -21.26279,-0.9664 -21.26279,-0.9664 z" />
    </g>
    <g
       id="g9">
      <path
         id="path2933-0-5-9-1-3"
         style="opacity:0.997;fill:#b40064;fill-opacity:1;stroke:none;stroke-width:0.264999;stroke-linecap:round;stroke-linejoin:round;stroke-miterlimit:4;stroke-dasharray:none;stroke-opacity:1;stop-color:#000000"
         d="m -67.19634,-1132.5987 a 5.0000001,5.0000001 0 0 0 -5.00022,-4.9805 5.0000001,5.0000001 0 0 0 -4.9997,5.0002 5.0000001,5.0000001 0 0 0 0.004,0.2129 5.0000001,5.0000001 0 0 0 0,0.01 c 0.0486,3.6084 1.25418,5.4753 1.25418,10.9833 l 0.97205,43.3141 c 0,25.6805 1.23222,40.2355 0.43304,49.0058 0.74811,-0.425 2.43243,-3.9732 2.43243,-7.3638 l 0.99218,-84.43 c 0,-6.3693 1.70953,-4.8529 3.53465,-9.8258 a 5.0000001,5.0000001 0 0 0 0.37674,-1.9032 5.0000001,5.0000001 0 0 0 0,-0.02 z" />
      <path
         id="path4482-16-4-8-8-7-6"
         style="fill:#b40064;fill-opacity:1;stroke:none;stroke-width:0.264583px;stroke-linecap:butt;stroke-linejoin:miter;stroke-opacity:1"
         d="m -86.19349,-1127.4004 -0.005,0.02 c -1.22184,-1.2447 -3.21427,-1.2853 -4.4858,-0.091 -1.29145,1.2129 -1.35531,3.243 -0.14265,4.5347 0.84506,0.9 2.12106,1.1898 3.13539,0.9792 2.12762,-0.4418 17.30474,14.8981 20.31695,17.9251 7.17277,7.2079 7.97533,8.9092 7.32714,12.1729 -0.30891,1.5554 -4.43844,5.004 -6.6912,6.8848 -5.36745,4.4813 -23.46106,11.2925 -23.46106,21.2647 0,9.78 11.55792,16.3389 19.40052,21.1843 4.77067,2.9475 7.82124,7.0884 8.11443,7.3654 -0.0491,-0.1584 -0.62535,-3.6916 -4.78382,-6.981 -8.17989,-6.4702 -18.37657,-12.6998 -18.37657,-21.5392 0,-3.8113 6.50701,-8.0466 10.77663,-10.9321 9.32453,-6.3018 16.62307,-12.3095 17.46826,-13.1364 2.1353,-2.089 2.81447,-8.0226 -0.57327,-11.9136 -7.55795,-8.6809 -28.01961,-27.7365 -28.01961,-27.7365 z"
         inkscape:transform-center-x="-9.2931151"
         inkscape:transform-center-y="9.0607043"
         sodipodi:nodetypes="cccssssssscssssscc" />
    </g>
    <g
       id="g1"
       transform="translate(641.34506,-708.77603)"
       style="fill:#b40064;fill-opacity:1">
      <path
         id="path2933-0-5-1-6-3-4-5"
         style="opacity:0.997;fill:#b40064;fill-opacity:1;stroke:none;stroke-width:0.264999;stroke-linecap:round;stroke-linejoin:round;stroke-miterlimit:4;stroke-dasharray:none;stroke-opacity:1;stop-color:#000000"
         d="m -658.5414,-423.82268 a 5.0000001,5.0000001 0 0 0 -5.00022,-4.9805 5.0000001,5.0000001 0 0 0 -4.9997,5.0002 5.0000001,5.0000001 0 0 0 0.004,0.2129 5.0000001,5.0000001 0 0 0 0,0.01 c 0.0486,3.60839 1.25418,5.47529 1.25418,10.98329 l 0.97205,43.3141 c 0,25.68051 1.23222,40.2355 0.43304,49.0058 0.74811,-0.425 2.43243,-3.9732 2.43243,-7.3638 l 0.99218,-84.43 c 0,-6.3693 1.70953,-4.8529 3.53465,-9.8258 a 5.0000001,5.0000001 0 0 0 0.37674,-1.9032 5.0000001,5.0000001 0 0 0 0,-0.02 z" />
      <path
         id="path4482-16-2-5-7-4-54"
         style="fill:#b40064;fill-opacity:1;stroke:none;stroke-width:0.264583px;stroke-linecap:butt;stroke-linejoin:miter;stroke-opacity:1"
         d="m -677.54354,-418.60464 -0.005,0.0197 c -1.22184,-1.24474 -3.21427,-1.28534 -4.4858,-0.0914 -1.29145,1.21289 -1.35531,3.243 -0.14265,4.53466 0.84506,0.90006 2.12106,1.1898 3.13539,0.97918 2.12762,-0.44177 13.1188,11.59888 14.28866,12.72899 1.03611,1.00089 7.1942,6.93954 11.57482,11.31806 2.96636,2.96493 4.67727,5.00928 5.52018,5.80557 -0.29737,-0.95925 -3.17113,-4.5908 -4.80985,-6.50302 -4.61674,-5.38729 -25.07541,-28.79116 -25.07541,-28.79116 z"
         inkscape:transform-center-x="-9.2931151"
         inkscape:transform-center-y="9.0607043"
         sodipodi:nodetypes="cccsssscscc" />
    </g>
    <g
       id="g5">
      <path
         id="path2933-0-5-1-6-3-4-79"
         style="opacity:0.997;fill:#b40064;fill-opacity:1;stroke:none;stroke-width:0.264999;stroke-linecap:round;stroke-linejoin:round;stroke-miterlimit:4;stroke-dasharray:none;stroke-opacity:1;stop-color:#000000"
         d="m -167.19634,-1132.5987 a 5.0000001,5.0000001 0 0 0 -5.00022,-4.9805 5.0000001,5.0000001 0 0 0 -4.9997,5.0002 5.0000001,5.0000001 0 0 0 0.004,0.2129 5.0000001,5.0000001 0 0 0 0,0.01 c 0.0486,3.6084 1.25418,5.4753 1.25418,10.9833 l 0.97205,43.3141 c 0,25.6805 1.23222,40.2355 0.43304,49.0058 0.74811,-0.425 2.43243,-3.9732 2.43243,-7.3638 l 0.99218,-84.43 c 0,-6.3693 1.70953,-4.8529 3.53465,-9.8258 a 5.0000001,5.0000001 0 0 0 0.37674,-1.9032 5.0000001,5.0000001 0 0 0 0,-0.02 z" />
      <path
         id="path4482-16-2-5-7-4-2"
         style="fill:#b40064;fill-opacity:1;stroke:none;stroke-width:0.264583px;stroke-linecap:butt;stroke-linejoin:miter;stroke-opacity:1"
         d="m -186.19848,-1127.3807 -0.005,0.02 c -1.22184,-1.2447 -3.21427,-1.2853 -4.4858,-0.091 -1.29145,1.2129 -1.35531,3.243 -0.14265,4.5347 0.84506,0.9 2.12106,1.1898 3.13539,0.9792 2.12762,-0.4418 13.1188,11.5988 14.28866,12.729 1.03611,1.0008 7.1942,6.9395 11.57482,11.318 2.96636,2.9649 4.67727,5.0093 5.52018,5.8056 -0.29737,-0.9593 -3.17113,-4.5908 -4.80985,-6.503 -4.61674,-5.3873 -25.07541,-28.7912 -25.07541,-28.7912 z"
         inkscape:transform-center-x="-9.2931151"
         inkscape:transform-center-y="9.0607043"
         sodipodi:nodetypes="cccsssscscc" />
    </g>
    <path
       id="path2933-0-5-1-6-1-5-7-5"
       style="opacity:0.997;fill:#b40064;fill-opacity:1;stroke:none;stroke-width:0.264999;stroke-linecap:round;stroke-linejoin:round;stroke-miterlimit:4;stroke-dasharray:none;stroke-opacity:1;stop-color:#000000"
       d="m 2.80366,-1132.5987 a 5.0000001,5.0000001 0 0 0 -5.00022,-4.9805 5.0000001,5.0000001 0 0 0 -4.9997,5.0002 5.0000001,5.0000001 0 0 0 0.004,0.2129 5.0000001,5.0000001 0 0 0 0,0.01 c 0.0486,3.6084 1.25418,5.4753 1.25418,10.9833 l 0.97205,43.3141 c 0,25.6805 1.23222,40.2355 0.43304,49.0058 0.74811,-0.425 2.43243,-3.9732 2.43243,-7.3638 l 0.99218,-84.43 c 0,-6.3693 1.70953,-4.8529 3.53465,-9.8258 a 5.0000001,5.0000001 0 0 0 0.37674,-1.9032 5.0000001,5.0000001 0 0 0 0,-0.02 z" />
    <path
       id="path2933-0-5-1-6-1-5-7-6"
       style="opacity:0.997;fill:#b40064;fill-opacity:1;stroke:none;stroke-width:0.264999;stroke-linecap:round;stroke-linejoin:round;stroke-miterlimit:4;stroke-dasharray:none;stroke-opacity:1;stop-color:#000000"
       d="m -97.19634,-1244.4332 a 5.0000001,5.0000001 0 0 0 -5.00022,-4.9805 5.0000001,5.0000001 0 0 0 -4.9997,5.0002 5.0000001,5.0000001 0 0 0 0.004,0.2129 5.0000001,5.0000001 0 0 0 0,0.01 c 0.0486,3.6084 1.25418,5.4753 1.25418,10.9833 l 0.97205,43.3141 c 0,25.6805 1.23222,40.2355 0.43304,49.0058 0.74811,-0.425 2.43243,-3.9732 2.43243,-7.3638 l 0.99218,-84.43 c 0,-6.3693 1.70953,-4.8529 3.53465,-9.8258 a 5.0000001,5.0000001 0 0 0 0.37674,-1.9032 5.0000001,5.0000001 0 0 0 0,-0.02 z" />
    <rect
       style="fill:none;stroke:#b40064;stroke-width:1.5;stroke-linejoin:round;stroke-opacity:1"
       id="rect2"
       width="220"
       height="240"
       x="-204.44879"
       y="-1259.2333" />
  </g>
</svg>
